<svg width="60" height="25" viewBox="0 0 60 25" fill="none" xmlns="http://www.w3.org/2000/svg">
<g clip-path="url(#clip0)">
<path fill-rule="evenodd" clip-rule="evenodd" d="M17.2134 19.476V16.5593C15.9196 16.6635 14.6258 17.1843 13.6305 17.9135C14.5262 18.7468 15.8201 19.2676 17.2134 19.476ZM17.2134 14.8926V13.4343H11.2419C11.3414 14.6843 11.8391 15.726 12.5357 16.6635C13.8296 15.726 15.422 14.9968 17.2134 14.8926ZM17.2134 11.8718V10.4135C15.422 10.3093 13.8296 9.58013 12.5357 8.64263C11.8391 9.58013 11.441 10.726 11.2419 11.8718H17.2134ZM17.2134 8.74679V5.83013C15.8201 6.03846 14.6258 6.55929 13.6305 7.39263C14.6258 8.12179 15.8201 8.64263 17.2134 8.74679ZM18.8058 5.83013V8.74679C20.0996 8.64263 21.3935 8.12179 22.3887 7.39263C21.3935 6.55929 20.0996 6.03846 18.8058 5.83013ZM18.8058 10.4135V11.8718H24.7773C24.6778 10.6218 24.1802 9.58013 23.4835 8.64263C22.1897 9.58013 20.4977 10.2051 18.8058 10.4135ZM18.8058 13.4343V14.8926C20.5973 14.9968 22.1897 15.726 23.4835 16.6635C24.1802 15.726 24.5783 14.5801 24.7773 13.4343H18.8058ZM18.8058 16.4551V19.3718C20.1992 19.1635 21.3935 18.6426 22.3887 17.8093C21.3935 17.0801 20.0996 16.6635 18.8058 16.4551ZM9.55 12.601C9.55 7.91346 13.3319 4.16346 18.0096 4.16346C22.6873 4.16346 26.4692 7.91346 26.4692 12.601C26.4692 17.2885 22.6873 21.0385 18.0096 21.0385C13.3319 21.0385 9.55 17.2885 9.55 12.601Z" fill="#F58423"/>
<mask id="mask0" mask-type="alpha" maskUnits="userSpaceOnUse" x="0" y="0" width="60" height="25">
<path fill-rule="evenodd" clip-rule="evenodd" d="M0 0H59.6154V25H0V0Z" fill="white"/>
</mask>
<g mask="url(#mask0)">
<path fill-rule="evenodd" clip-rule="evenodd" d="M3.28432 0H25.6774V2.1875H8.55914C7.36484 2.1875 6.46911 3.125 6.46911 4.27083V20.7292C6.46911 21.875 7.36484 22.8125 8.55914 22.8125H25.5779V25H3.28432C1.49287 25 0 23.5417 0 21.7708V3.22917C0 1.45833 1.49287 0 3.28432 0ZM38.5161 22.7083C37.3218 22.7083 36.3266 21.7708 36.3266 20.625V4.27083C36.3266 3.125 37.2223 2.1875 38.4166 2.1875H38.5161C39.7104 2.1875 40.6061 3.125 40.6061 4.27083V20.7292C40.6061 21.7708 39.7104 22.7083 38.5161 22.7083ZM48.9662 2.1875C47.7719 2.1875 46.8762 3.125 46.8762 4.27083V20.7292C46.8762 21.875 47.7719 22.8125 48.9662 22.8125H49.4638C51.6534 22.8125 53.4448 20.7292 53.4448 18.2292C53.4448 15.7292 51.6534 13.6458 49.4638 13.6458H48.9662V11.3542H49.4638C51.6534 11.3542 53.4448 9.27083 53.4448 6.77083C53.4448 4.27083 51.6534 2.1875 49.4638 2.1875H48.9662V2.1875ZM27.867 25V22.8125C29.0613 22.8125 30.0565 21.875 30.0565 20.7292V4.27083C30.0565 3.125 29.1608 2.1875 27.9665 2.1875V0H52.5491C55.933 0 58.7197 2.8125 58.7197 6.25C58.7197 8.64583 57.3263 10.8333 55.3358 11.875C57.8239 12.8125 59.6154 15.3125 59.6154 18.2292C59.6154 21.9792 56.6296 25 53.0467 25H27.867Z" fill="white"/>
</g>
</g>
<defs>
<clipPath id="clip0">
<rect width="59.6154" height="25" fill="white"/>
</clipPath>
</defs>
</svg>
